<svg version="1.1" xmlns="http://www.w3.org/2000/svg" viewBox="0 0 1765.2754831204493 1070.3344531839616" width="1765.2754831204493" height="1070.3344531839616">
  <!-- svg-source:excalidraw -->
  
  <defs>
    <style class="style-fonts">
      @font-face {
        font-family: "Virgil";
        src: url("https://excalidraw.com/Virgil.woff2");
      }
      @font-face {
        font-family: "Cascadia";
        src: url("https://excalidraw.com/Cascadia.woff2");
      }
      @font-face {
        font-family: "Assistant";
        src: url("https://excalidraw.com/Assistant-Regular.woff2");
      }
    </style>
    
  </defs>
  <rect x="0" y="0" width="1765.2754831204493" height="1070.3344531839616" fill="#ffffff"></rect><g stroke-linecap="round" transform="translate(1420.074664488212 117.19752421062412) rotate(0 163.75915826038818 101.20890613409739)"><path d="M32 0 C97.93 1.77, 161.35 0.88, 295.52 0 M32 0 C86.47 1.03, 140.59 0.52, 295.52 0 M295.52 0 C316.37 -1.09, 327.85 11.27, 327.52 32 M295.52 0 C318.57 0.28, 326.89 11.15, 327.52 32 M327.52 32 C329.54 72.78, 328.37 113.92, 327.52 170.42 M327.52 32 C326.72 81.33, 326.35 131.3, 327.52 170.42 M327.52 170.42 C325.98 192.27, 316.84 200.75, 295.52 202.42 M327.52 170.42 C327.09 192.34, 316.73 204.37, 295.52 202.42 M295.52 202.42 C239 204.11, 184.46 202.46, 32 202.42 M295.52 202.42 C228.16 202.04, 162.04 201.26, 32 202.42 M32 202.42 C12 202.47, 1.58 190.62, 0 170.42 M32 202.42 C11.51 203.36, -1.59 193.31, 0 170.42 M0 170.42 C-1.98 131.57, -2.49 91.67, 0 32 M0 170.42 C1.26 138.44, 0.11 104.84, 0 32 M0 32 C0.82 8.96, 12.49 0.1, 32 0 M0 32 C1.48 11.15, 10.22 0.29, 32 0" stroke="#1e1e1e" stroke-width="1" fill="none"></path></g><g transform="translate(1492.6238618111001 200.90643034472168) rotate(0 91.2099609375 17.5)"><text x="91.2099609375" y="0" font-family="Virgil, Segoe UI Emoji" font-size="28px" fill="#1e1e1e" text-anchor="middle" style="white-space: pre;" direction="ltr" dominant-baseline="text-before-edge">Client (FRPC)</text></g><g stroke-linecap="round" transform="translate(1350.3218176112632 62.626583194457) rotate(0 163.75915826038818 101.20890613409739)"><path d="M32 0 C91.16 4.65, 145.47 0.15, 295.52 0 C318.98 1.94, 327.95 9.13, 327.52 32 C330.3 70.62, 327.5 107.03, 327.52 170.42 C328.02 190.14, 316.86 204.72, 295.52 202.42 C231.03 201.04, 173.39 201.49, 32 202.42 C12.31 201.27, 2.87 191.06, 0 170.42 C2.54 132.85, 2.98 93.63, 0 32 C-0.05 7.24, 11.6 2.06, 32 0" stroke="none" stroke-width="0" fill="#ffffff"></path><path d="M32 0 C85.65 -1.28, 140.12 -0.87, 295.52 0 M32 0 C116.1 -1.17, 200.53 -1.42, 295.52 0 M295.52 0 C315.6 2, 327.07 11.14, 327.52 32 M295.52 0 C315.92 -2.01, 329.5 9.53, 327.52 32 M327.52 32 C328.24 83.69, 328.94 134.35, 327.52 170.42 M327.52 32 C329.48 66.07, 328.07 101.53, 327.52 170.42 M327.52 170.42 C327.43 190.51, 317.28 204.34, 295.52 202.42 M327.52 170.42 C329.07 191.24, 318.92 202.62, 295.52 202.42 M295.52 202.42 C200.33 199.68, 102.99 202.37, 32 202.42 M295.52 202.42 C199.88 203.44, 103.26 203.03, 32 202.42 M32 202.42 C9.75 201.07, -0.1 191.07, 0 170.42 M32 202.42 C10.73 201.16, -1.75 194.05, 0 170.42 M0 170.42 C0.36 124.78, 1.29 77.36, 0 32 M0 170.42 C-0.3 123.45, 1.04 74.94, 0 32 M0 32 C0.93 11.65, 9.43 0.73, 32 0 M0 32 C0.54 11.67, 12.42 1.51, 32 0" stroke="#1e1e1e" stroke-width="1" fill="none"></path></g><g transform="translate(1422.8710149341514 146.33548932855456) rotate(0 91.2099609375 17.5)"><text x="91.2099609375" y="0" font-family="Virgil, Segoe UI Emoji" font-size="28px" fill="#1e1e1e" text-anchor="middle" style="white-space: pre;" direction="ltr" dominant-baseline="text-before-edge">Client (FRPC)</text></g><g stroke-linecap="round" transform="translate(1427.757166599673 857.9166409157667) rotate(0 163.75915826038818 101.20890613409739)"><path d="M32 0 C113.4 -0.65, 194.84 -3.28, 295.52 0 M32 0 C112.35 -2.44, 193.22 -0.99, 295.52 0 M295.52 0 C317.49 0.09, 328.45 11.58, 327.52 32 M295.52 0 C318.27 -1.68, 329.22 8.73, 327.52 32 M327.52 32 C327.43 79.7, 324.59 126.11, 327.52 170.42 M327.52 32 C325.48 75.57, 326.36 118.97, 327.52 170.42 M327.52 170.42 C329.41 192.73, 316.26 203.62, 295.52 202.42 M327.52 170.42 C327.29 192.46, 318.06 200.58, 295.52 202.42 M295.52 202.42 C234.25 201.67, 174.72 203.17, 32 202.42 M295.52 202.42 C214.95 200.81, 133.68 200.09, 32 202.42 M32 202.42 C10.03 203.28, 1.8 191.45, 0 170.42 M32 202.42 C11.04 202.89, -0.33 190.86, 0 170.42 M0 170.42 C0.94 124.34, 1.35 81.1, 0 32 M0 170.42 C1.42 119.91, 0.15 71.52, 0 32 M0 32 C-1.25 9.18, 11.59 0.96, 32 0 M0 32 C-1.16 10.62, 12.15 0.1, 32 0" stroke="#1e1e1e" stroke-width="1" fill="none"></path></g><g transform="translate(1500.306363922561 941.6255470498642) rotate(0 91.2099609375 17.5)"><text x="91.2099609375" y="0" font-family="Virgil, Segoe UI Emoji" font-size="28px" fill="#1e1e1e" text-anchor="middle" style="white-space: pre;" direction="ltr" dominant-baseline="text-before-edge">Client (FRPC)</text></g><g stroke-linecap="round" transform="translate(1358.0043197227242 803.3456998995996) rotate(0 163.75915826038818 101.20890613409739)"><path d="M32 0 C87.29 -0.56, 137.79 -2.97, 295.52 0 C317.95 -2.59, 329.98 13.9, 327.52 32 C330.7 64.21, 331.31 94.32, 327.52 170.42 C324.24 192.83, 313.65 199.92, 295.52 202.42 C225.03 200.09, 152.78 203.73, 32 202.42 C14.18 199.81, 0.07 192.7, 0 170.42 C1.53 130.89, -0.95 88.12, 0 32 C1.38 8.05, 12.28 0.52, 32 0" stroke="none" stroke-width="0" fill="#ffffff"></path><path d="M32 0 C129.99 0.74, 229.14 1.8, 295.52 0 M32 0 C88.83 -2, 145.52 -1.67, 295.52 0 M295.52 0 C318.09 -1.46, 329 8.98, 327.52 32 M295.52 0 C317.71 -2.24, 327.55 12.11, 327.52 32 M327.52 32 C326.64 78.69, 325.23 126.84, 327.52 170.42 M327.52 32 C328.43 81.29, 327.19 130.19, 327.52 170.42 M327.52 170.42 C327.32 192.37, 317.9 200.82, 295.52 202.42 M327.52 170.42 C325.83 191.67, 316.62 200.17, 295.52 202.42 M295.52 202.42 C225.57 202.12, 154.09 204.85, 32 202.42 M295.52 202.42 C213.97 201.06, 133.65 200.6, 32 202.42 M32 202.42 C10.99 202.83, -0.28 190.98, 0 170.42 M32 202.42 C11.14 202.82, 1.46 193.11, 0 170.42 M0 170.42 C0.06 139.95, -0.67 112.75, 0 32 M0 170.42 C-0.15 140.9, 0.93 113.34, 0 32 M0 32 C-1.01 10.63, 11.95 0.09, 32 0 M0 32 C-2.23 10.21, 10.92 -0.3, 32 0" stroke="#1e1e1e" stroke-width="1" fill="none"></path></g><g transform="translate(1430.5535170456124 887.054606033697) rotate(0 91.2099609375 17.5)"><text x="91.2099609375" y="0" font-family="Virgil, Segoe UI Emoji" font-size="28px" fill="#1e1e1e" text-anchor="middle" style="white-space: pre;" direction="ltr" dominant-baseline="text-before-edge">Client (FRPC)</text></g><g stroke-linecap="round" transform="translate(601.6708303889933 751.712601347591) rotate(0 163.75915826038818 101.20890613409739)"><path d="M32 0 C101.56 1, 172.84 2.01, 295.52 0 M32 0 C134.25 -0.42, 236.44 0.01, 295.52 0 M295.52 0 C316.64 -0.86, 328.36 11.27, 327.52 32 M295.52 0 C316.17 -0.59, 328.97 10.82, 327.52 32 M327.52 32 C325.35 71.03, 325.77 108.3, 327.52 170.42 M327.52 32 C326.19 81.52, 326.26 129.61, 327.52 170.42 M327.52 170.42 C329.46 190.14, 317.4 200.55, 295.52 202.42 M327.52 170.42 C329.6 192.92, 317.21 200.66, 295.52 202.42 M295.52 202.42 C213.75 199.76, 130.18 199.69, 32 202.42 M295.52 202.42 C198.15 202.36, 102.1 201.37, 32 202.42 M32 202.42 C10.14 200.46, -0.25 192.48, 0 170.42 M32 202.42 C11.16 200.48, 1.91 192.39, 0 170.42 M0 170.42 C1.12 133.68, -0.88 96.05, 0 32 M0 170.42 C-0.59 135.24, -0.41 101.35, 0 32 M0 32 C-1.43 11.69, 11.17 0.33, 32 0 M0 32 C1.66 10.75, 10.47 -0.51, 32 0" stroke="#1e1e1e" stroke-width="1" fill="none"></path></g><g transform="translate(716.1780050068033 835.4215074816883) rotate(0 49.251983642578125 17.5)"><text x="49.251983642578125" y="0" font-family="Virgil, Segoe UI Emoji" font-size="28px" fill="#1e1e1e" text-anchor="middle" style="white-space: pre;" direction="ltr" dominant-baseline="text-before-edge">Master</text></g><g stroke-linecap="round" transform="translate(1299.954165724621 10) rotate(0 163.75915826038818 101.20890613409739)"><path d="M32 0 C89.31 -0.54, 152.21 -5.49, 295.52 0 C317.68 -2.38, 327.83 11.05, 327.52 32 C327.83 88.76, 327.97 138.92, 327.52 170.42 C324.09 191.48, 314.5 200.69, 295.52 202.42 C225.85 205.54, 159.1 206.35, 32 202.42 C10.89 201.93, -1.66 193.74, 0 170.42 C-0.18 123.98, 0.58 76.75, 0 32 C-1.88 13.92, 12.77 2.71, 32 0" stroke="none" stroke-width="0" fill="#ffffff"></path><path d="M32 0 C87.05 0.68, 145.63 0.43, 295.52 0 M32 0 C108.26 -1.29, 182.31 -2.01, 295.52 0 M295.52 0 C317.25 -1.13, 326.06 9.3, 327.52 32 M295.52 0 C314.82 0.34, 329.57 9.78, 327.52 32 M327.52 32 C326.25 83.07, 327.17 134.58, 327.52 170.42 M327.52 32 C328.94 70.02, 327.5 108.16, 327.52 170.42 M327.52 170.42 C328.91 192.86, 315.97 201.76, 295.52 202.42 M327.52 170.42 C329.56 193.08, 319.15 204.4, 295.52 202.42 M295.52 202.42 C215.08 204.93, 134.95 203.02, 32 202.42 M295.52 202.42 C239.88 204.08, 185.02 203.78, 32 202.42 M32 202.42 C10.76 203.5, -1.04 192.5, 0 170.42 M32 202.42 C10.56 201.58, 1.31 192.2, 0 170.42 M0 170.42 C0.15 142.45, -1.64 108.86, 0 32 M0 170.42 C-0.98 134.22, -0.63 97.38, 0 32 M0 32 C-0.62 9.9, 9.86 -1.83, 32 0 M0 32 C-0.27 11.93, 10.81 1.21, 32 0" stroke="#1e1e1e" stroke-width="1" fill="none"></path></g><g transform="translate(1367.6873687848138 93.70890613409733) rotate(0 96.02595520019531 17.5)"><text x="96.02595520019531" y="0" font-family="Virgil, Segoe UI Emoji" font-size="28px" fill="#1e1e1e" text-anchor="middle" style="white-space: pre;" direction="ltr" dominant-baseline="text-before-edge">Server (FRPS)</text></g><g stroke-linecap="round" transform="translate(1293.7062782178655 755.5188818889255) rotate(0 163.75915826038818 101.20890613409739)"><path d="M32 0 C108.02 -0.47, 181.82 -3.37, 295.52 0 C318.35 -3.05, 327.18 13.27, 327.52 32 C326.88 76.25, 324.76 116.92, 327.52 170.42 C324.46 193.28, 320.05 199.59, 295.52 202.42 C242.18 204.1, 185.97 198.7, 32 202.42 C13.58 200.29, 3.3 191.33, 0 170.42 C-0.18 125.46, -3.57 89.94, 0 32 C-1.4 12.7, 13.09 1.73, 32 0" stroke="none" stroke-width="0" fill="#ffffff"></path><path d="M32 0 C106.98 -1.29, 181.28 -2.69, 295.52 0 M32 0 C109.87 0.81, 188.7 1.89, 295.52 0 M295.52 0 C316.71 0.81, 326.89 11.79, 327.52 32 M295.52 0 C316.93 0.27, 327.95 11.05, 327.52 32 M327.52 32 C327.69 81.7, 326.3 131.99, 327.52 170.42 M327.52 32 C328.69 67.46, 328.31 103.39, 327.52 170.42 M327.52 170.42 C328.58 193.27, 318.41 204.11, 295.52 202.42 M327.52 170.42 C328.2 193.67, 315.03 204.41, 295.52 202.42 M295.52 202.42 C216.59 205.19, 139.69 203.56, 32 202.42 M295.52 202.42 C190.96 204.71, 85.87 204.03, 32 202.42 M32 202.42 C11.07 201.95, -0.59 193.08, 0 170.42 M32 202.42 C12.88 201.23, -1.44 189.5, 0 170.42 M0 170.42 C-0.94 131.01, 1.32 93.91, 0 32 M0 170.42 C-1.7 131.26, -0.38 94.21, 0 32 M0 32 C0.54 11.46, 11.12 1.99, 32 0 M0 32 C0.79 12.79, 9.92 -1.71, 32 0" stroke="#1e1e1e" stroke-width="1" fill="none"></path></g><g transform="translate(1366.2554755407537 839.227788023023) rotate(0 91.2099609375 17.5)"><text x="91.2099609375" y="0" font-family="Virgil, Segoe UI Emoji" font-size="28px" fill="#1e1e1e" text-anchor="middle" style="white-space: pre;" direction="ltr" dominant-baseline="text-before-edge">Client (FRPC)</text></g><g mask="url(#mask-nFYW-m5QCI31KlMgME3JT)" stroke-linecap="round"><g transform="translate(1287.7200786703106 141.4311511322062) rotate(0 -260.53887807614444 297.1514334103978)"><path d="M-0.94 0.69 C-88.1 99.39, -435.53 494.23, -522.27 593.35 M0.77 0.01 C-86.11 99.34, -433 495.45, -520.18 594.39" stroke="#1e1e1e" stroke-width="1" fill="none"></path></g><g transform="translate(1287.7200786703106 141.4311511322062) rotate(0 -260.53887807614444 297.1514334103978)"><path d="M-511.11 571.1 C-513.01 577.44, -519.01 587.34, -520.18 594.39 M-511.11 571.1 C-514.57 580.79, -518.12 590.06, -520.18 594.39" stroke="#1e1e1e" stroke-width="1" fill="none"></path></g><g transform="translate(1287.7200786703106 141.4311511322062) rotate(0 -260.53887807614444 297.1514334103978)"><path d="M-498.26 582.38 C-504.9 584.56, -515.54 590.38, -520.18 594.39 M-498.26 582.38 C-506.83 587.69, -515.46 592.5, -520.18 594.39" stroke="#1e1e1e" stroke-width="1" fill="none"></path></g></g><mask id="mask-nFYW-m5QCI31KlMgME3JT"><rect x="0" y="0" fill="#fff" width="1908.7978348225995" height="835.7340179530017"></rect><rect x="959.393229097584" y="403.58258454260397" fill="#000" width="135.57594299316406" height="70" opacity="1"></rect></mask><g transform="translate(959.393229097584 403.58258454260397) rotate(0 67.57947386386354 35.050645686341454)"><text x="67.78797149658203" y="0" font-family="Virgil, Segoe UI Emoji" font-size="28px" fill="#1e1e1e" text-anchor="middle" style="white-space: pre;" direction="ltr" dominant-baseline="text-before-edge">get config</text><text x="67.78797149658203" y="35" font-family="Virgil, Segoe UI Emoji" font-size="28px" fill="#1e1e1e" text-anchor="middle" style="white-space: pre;" direction="ltr" dominant-baseline="text-before-edge">获取配置</text></g><g mask="url(#mask-gKbJ5CnCOHNvZzU0qNvUR)" stroke-linecap="round"><g transform="translate(1270.5980058442733 832.4493360376023) rotate(0 -158.2379976602299 -1.6529239863902774)"><path d="M0.85 0.25 C-52.02 -0.23, -264.46 -2.66, -317.32 -3.25 M-0.17 -0.66 C-52.64 -0.9, -262.24 -1.47, -315.05 -1.69" stroke="#1e1e1e" stroke-width="1" fill="none"></path></g><g transform="translate(1270.5980058442733 832.4493360376023) rotate(0 -158.2379976602299 -1.6529239863902774)"><path d="M-291.53 -10.16 C-297.9 -8.97, -305 -4.91, -315.05 -1.69 M-291.53 -10.16 C-298.22 -8.35, -304.94 -4.77, -315.05 -1.69" stroke="#1e1e1e" stroke-width="1" fill="none"></path></g><g transform="translate(1270.5980058442733 832.4493360376023) rotate(0 -158.2379976602299 -1.6529239863902774)"><path d="M-291.59 6.94 C-297.89 3.22, -304.97 2.35, -315.05 -1.69 M-291.59 6.94 C-298.38 3.58, -305.08 1.99, -315.05 -1.69" stroke="#1e1e1e" stroke-width="1" fill="none"></path></g></g><mask id="mask-gKbJ5CnCOHNvZzU0qNvUR"><rect x="0" y="0" fill="#fff" width="1687.074001164733" height="935.7551840103829"></rect><rect x="1044.5720366874611" y="795.796412051212" fill="#000" width="135.57594299316406" height="70" opacity="1"></rect></mask><g transform="translate(1044.5720366874611 795.796412051212) rotate(0 67.78794980198165 35.15277993530037)"><text x="67.78797149658203" y="0" font-family="Virgil, Segoe UI Emoji" font-size="28px" fill="#1e1e1e" text-anchor="middle" style="white-space: pre;" direction="ltr" dominant-baseline="text-before-edge">get config</text><text x="67.78797149658203" y="35" font-family="Virgil, Segoe UI Emoji" font-size="28px" fill="#1e1e1e" text-anchor="middle" style="white-space: pre;" direction="ltr" dominant-baseline="text-before-edge">获取配置</text></g><g mask="url(#mask-6jya91dVX8ETG4TzGvAJR)" stroke-linecap="round"><g transform="translate(1455.9417871643655 740.5133644587497) rotate(0 -0.1829520330120431 -256.4287797580482)"><path d="M0.36 -0.84 C-0.02 -86.47, -1.27 -428.28, -1.54 -513.44 M-0.92 1.33 C-1.01 -84.18, 0.22 -426.39, 0.55 -512.22" stroke="#1e1e1e" stroke-width="1" fill="none"></path></g><g transform="translate(1455.9417871643655 740.5133644587497) rotate(0 -0.1829520330120431 -256.4287797580482)"><path d="M9.01 -488.69 C4.49 -499.1, 1.87 -507.19, 0.55 -512.22 M9.01 -488.69 C5.44 -497.82, 3.12 -506.07, 0.55 -512.22" stroke="#1e1e1e" stroke-width="1" fill="none"></path></g><g transform="translate(1455.9417871643655 740.5133644587497) rotate(0 -0.1829520330120431 -256.4287797580482)"><path d="M-8.09 -488.75 C-6.45 -499.19, -2.91 -507.26, 0.55 -512.22 M-8.09 -488.75 C-5.05 -497.7, -0.75 -505.92, 0.55 -512.22" stroke="#1e1e1e" stroke-width="1" fill="none"></path></g></g><mask id="mask-6jya91dVX8ETG4TzGvAJR"><rect x="0" y="0" fill="#fff" width="1556.3076912303895" height="1353.3709239748462"></rect><rect x="1330.4308550898495" y="449.0845847007015" fill="#000" width="250.6559600830078" height="70" opacity="1"></rect></mask><g transform="translate(1330.4308550898495 449.0845847007015) rotate(0 125.01332651569874 35.37135367130395)"><text x="125.3279800415039" y="0" font-family="Virgil, Segoe UI Emoji" font-size="28px" fill="#1e1e1e" text-anchor="middle" style="white-space: pre;" direction="ltr" dominant-baseline="text-before-edge">connect via config</text><text x="125.3279800415039" y="35" font-family="Virgil, Segoe UI Emoji" font-size="28px" fill="#1e1e1e" text-anchor="middle" style="white-space: pre;" direction="ltr" dominant-baseline="text-before-edge">用配置信息连接frps</text></g><g stroke-linecap="round"><g transform="translate(1584.798224940438 782.6665866359888) rotate(0 2.258574709014283 -251.48294673312247)"><path d="M1.13 -0.7 C2 -84.81, 4.49 -420.29, 5.06 -503.84 M0.27 1.55 C1.03 -82.5, 3.81 -418.53, 4.39 -502.77" stroke="#1e1e1e" stroke-width="1" fill="none"></path></g><g transform="translate(1584.798224940438 782.6665866359888) rotate(0 2.258574709014283 -251.48294673312247)"><path d="M12.76 -479.21 C9.01 -485.06, 6.29 -492.81, 4.39 -502.77 M12.76 -479.21 C10.34 -488.4, 6.94 -496.14, 4.39 -502.77" stroke="#1e1e1e" stroke-width="1" fill="none"></path></g><g transform="translate(1584.798224940438 782.6665866359888) rotate(0 2.258574709014283 -251.48294673312247)"><path d="M-4.34 -479.34 C-3.13 -485.32, -0.9 -493.03, 4.39 -502.77 M-4.34 -479.34 C-0.26 -488.55, 2.83 -496.24, 4.39 -502.77" stroke="#1e1e1e" stroke-width="1" fill="none"></path></g></g><mask></mask><g stroke-linecap="round"><g transform="translate(1721.4421054922477 845.301484684742) rotate(0 -1.4137254171546374 -257.1055922705075)"><path d="M0.16 -0.8 C-0.64 -86.35, -3.34 -428.06, -3.73 -513.59 M-1.22 1.39 C-1.73 -84.49, -1.26 -429.73, -1.49 -515.39" stroke="#1e1e1e" stroke-width="1" fill="none"></path></g><g transform="translate(1721.4421054922477 845.301484684742) rotate(0 -1.4137254171546374 -257.1055922705075)"><path d="M7.07 -491.9 C2.48 -502.46, 1.55 -508.92, -1.49 -515.39 M7.07 -491.9 C4.14 -498.7, 0.77 -507.27, -1.49 -515.39" stroke="#1e1e1e" stroke-width="1" fill="none"></path></g><g transform="translate(1721.4421054922477 845.301484684742) rotate(0 -1.4137254171546374 -257.1055922705075)"><path d="M-10.03 -491.89 C-8.01 -502.48, -2.35 -508.94, -1.49 -515.39 M-10.03 -491.89 C-7.55 -498.6, -5.51 -507.18, -1.49 -515.39" stroke="#1e1e1e" stroke-width="1" fill="none"></path></g></g><mask></mask><g stroke-linecap="round" transform="translate(18.060588060110604 791.0073361647447) rotate(0 22.08487971290191 20.32702338216245)"><path d="M19.9 0.15 C24.32 -0.51, 30.77 1.46, 34.58 3.88 C38.4 6.31, 41.58 10.66, 42.8 14.69 C44.02 18.72, 43.77 24.16, 41.92 28.06 C40.06 31.96, 35.78 36.06, 31.69 38.08 C27.59 40.09, 21.85 41.18, 17.35 40.15 C12.84 39.13, 7.56 35.4, 4.64 31.92 C1.73 28.43, -0.42 23.52, -0.13 19.23 C0.16 14.95, 3.13 9.43, 6.41 6.21 C9.69 3, 17.26 0.87, 19.56 -0.06 C21.86 -0.99, 20.07 0.33, 20.21 0.63 M25.47 0.06 C29.74 0.46, 35.15 4.09, 38.32 7.38 C41.5 10.68, 44.37 15.5, 44.53 19.83 C44.69 24.15, 42.23 29.81, 39.27 33.34 C36.32 36.88, 31.46 40.26, 26.78 41.02 C22.11 41.79, 15.54 40.17, 11.22 37.94 C6.91 35.7, 2.51 31.77, 0.89 27.63 C-0.74 23.49, -0.12 17.3, 1.47 13.11 C3.07 8.92, 6.44 4.6, 10.46 2.48 C14.48 0.36, 23.04 0.6, 25.61 0.38 C28.18 0.16, 25.82 0.95, 25.89 1.16" stroke="#000000" stroke-width="2" fill="none"></path></g><g stroke-linecap="round"><g transform="translate(38.327132331927714 831.4352184255844) rotate(0 -1.0836667262440756 24.643077690695662)"><path d="M-0.25 0.42 C-0.51 8.76, -1.69 41.39, -2.01 49.59 M0.63 0.16 C0.34 8.38, -1.84 40.69, -2.36 48.77" stroke="#000000" stroke-width="2" fill="none"></path></g></g><mask></mask><g stroke-linecap="round"><g transform="translate(35.742962550139055 882.6990723429011) rotate(0 9.755068602468214 15.028637594686586)"><path d="M0.35 0.65 C3.7 5.62, 16.17 26.01, 19.56 30.72 M-0.92 -0.05 C2.32 4.49, 15.07 23.99, 18.64 28.94" stroke="#000000" stroke-width="2" fill="none"></path></g></g><mask></mask><g stroke-linecap="round"><g transform="translate(35.135385244108875 881.83734125008) rotate(0 -9.39167304544867 12.866559854730369)"><path d="M0.05 0.66 C-2.94 4.65, -14.52 20.58, -17.62 24.6 M-1.38 -0.04 C-4.46 4, -14.99 21.27, -17.95 25.54" stroke="#000000" stroke-width="2" fill="none"></path></g></g><mask></mask><g stroke-linecap="round"><g transform="translate(18.794542205789185 841.1234606315389) rotate(0 9.475879655821359 9.095355461873083)"><path d="M1.17 -1.14 C4.36 1.62, 16.39 14.08, 19.19 17.22 M0.32 0.88 C3.37 3.7, 15.03 15.27, 18.37 18.24" stroke="#000000" stroke-width="2" fill="none"></path></g></g><mask></mask><g stroke-linecap="round"><g transform="translate(39.29516636877452 859.4470778919614) rotate(0 13.655441590438386 -7.701478794910258)"><path d="M0.24 -0.97 C4.43 -3.44, 22 -13.7, 26.33 -15.92 M-1.09 1.13 C3.37 -1.08, 23.59 -11.79, 28.53 -14.66" stroke="#000000" stroke-width="2" fill="none"></path></g></g><mask></mask><g stroke-linecap="round"><g transform="translate(10.979679681360722 794.8633817995652) rotate(0 31.730823847433896 6.455614592500893)"><path d="M-0.98 -0.52 C9.37 1.98, 51.59 11.63, 62.36 14.01 M0.71 1.82 C11.39 4.1, 54.12 10.8, 64.49 12.46" stroke="#000000" stroke-width="2" fill="none"></path></g></g><mask></mask><g stroke-linecap="round" transform="translate(31.177715271878697 753.616517033987) rotate(10.74366233694554 16.35750011333016 22.990451630855887)"><path d="M-0.47 -0.83 L32.28 -0.58 L32.1 46.72 L0.73 45.64" stroke="none" stroke-width="0" fill="#fff"></path><path d="M0 0 C8.06 0.29, 14.96 -0.79, 32.72 0 M0 0 C8.58 -0.59, 17.21 -0.39, 32.72 0 M32.72 0 C33.45 16.32, 33.32 30.38, 32.72 45.98 M32.72 0 C32.78 12.22, 32.64 24.93, 32.72 45.98 M32.72 45.98 C19.84 45.3, 7.43 46.26, 0 45.98 M32.72 45.98 C24.7 45.98, 16.99 46.23, 0 45.98 M0 45.98 C1.15 29.03, -0.57 11.11, 0 0 M0 45.98 C-0.56 33.61, 0.07 21.88, 0 0" stroke="#000000" stroke-width="2" fill="none"></path></g><g stroke-linecap="round"><g transform="translate(40.352407330352435 820.1934096716585) rotate(0 0.7898335824609717 4.417686615041561)" fill-rule="evenodd"><path d="M0.05 -0.26 C2.08 0.46, 10.54 5.94, 14.39 6.66 C18.24 7.38, 21.22 5.01, 23.16 4.06 C25.1 3.11, 25.98 -0.14, 26.03 0.93 C26.08 2.01, 25.04 8.62, 23.45 10.5 C21.86 12.38, 20.08 13.21, 16.51 12.2 C12.94 11.19, 7.42 4.62, 2.01 4.43 C-3.4 4.24, -11.67 12.42, -15.93 11.07 C-20.19 9.72, -23.83 -2.32, -23.56 -3.67 C-23.29 -5.03, -18.55 1.95, -14.32 2.94 C-10.09 3.92, -0.24 2.92, 1.83 2.24" stroke="none" stroke-width="0" fill="#000" fill-rule="evenodd"></path><path d="M0.17 0.81 C2.84 1.56, 11.14 4.73, 14.93 5.63 C18.72 6.54, 20.89 7.03, 22.93 6.23 C24.97 5.43, 27.08 0.3, 27.17 0.84 C27.27 1.38, 25.34 7.77, 23.5 9.47 C21.67 11.16, 20.27 11.37, 16.18 11.01 C12.1 10.66, 4.27 7.6, -0.98 7.33 C-6.24 7.06, -11.15 10.96, -15.36 9.38 C-19.56 7.8, -25.9 -1.3, -26.24 -2.16 C-26.58 -3.01, -21.84 3.95, -17.37 4.22 C-12.91 4.5, -2.36 0.16, 0.57 -0.52 M-1.2 0.19 C1.92 1.62, 13.12 6.27, 17.05 6.95 C20.98 7.63, 20.69 5.23, 22.4 4.29 C24.1 3.35, 26.78 0.46, 27.3 1.32 C27.82 2.19, 27.7 8.02, 25.51 9.49 C23.32 10.97, 18.53 10.69, 14.15 10.17 C9.77 9.66, 4.22 6.54, -0.77 6.4 C-5.76 6.27, -11.83 10.45, -15.78 9.37 C-19.73 8.29, -24.26 0.83, -24.48 -0.06 C-24.69 -0.96, -21.35 3.94, -17.07 3.99 C-12.8 4.03, -1.48 0.89, 1.2 0.19" stroke="#000000" stroke-width="1" fill="none"></path></g></g><mask></mask><g stroke-linecap="round" transform="translate(22.85230543729267 803.5268800732873) rotate(0 7.2351621642319515 5.761438751069534)"><path d="M7.41 -0.12 C8.79 -0.04, 10.89 1.04, 12.09 1.88 C13.29 2.73, 14.37 3.67, 14.6 4.95 C14.83 6.23, 14.35 8.53, 13.47 9.57 C12.59 10.6, 10.91 10.99, 9.33 11.16 C7.75 11.33, 5.41 11.06, 3.99 10.6 C2.58 10.14, 1.49 9.45, 0.83 8.41 C0.17 7.36, -0.35 5.5, 0.04 4.34 C0.43 3.18, 1.75 2.19, 3.17 1.48 C4.59 0.76, 7.72 0.32, 8.55 0.05 C9.38 -0.23, 8.24 -0.29, 8.17 -0.17 M6.08 0.16 C7.63 0.06, 9.82 0.82, 11.27 1.34 C12.72 1.87, 14.3 2.1, 14.77 3.31 C15.25 4.53, 14.7 7.45, 14.13 8.61 C13.56 9.77, 12.63 9.84, 11.35 10.26 C10.06 10.68, 7.96 11.17, 6.42 11.13 C4.88 11.09, 3.28 10.99, 2.11 10.01 C0.94 9.03, -0.59 6.54, -0.58 5.24 C-0.56 3.93, 1.13 3.15, 2.2 2.19 C3.27 1.22, 5.23 -0.15, 5.85 -0.56 C6.46 -0.97, 5.9 -0.56, 5.89 -0.26" stroke="#000000" stroke-width="1" fill="none"></path></g><g stroke-linecap="round" transform="translate(29.418591634792392 808.0715151617222) rotate(0 0.37748672161211516 0.49568963444014)"><path d="M0.17 0.11 C0.32 0.08, 0.58 -0.22, 0.72 -0.12 C0.85 -0.02, 0.94 0.59, 0.97 0.71 C1 0.83, 0.98 0.61, 0.89 0.61 C0.8 0.61, 0.5 0.62, 0.42 0.71 C0.33 0.79, 0.46 1.11, 0.37 1.13 C0.29 1.14, -0.03 0.89, -0.09 0.82 C-0.14 0.76, -0.05 0.84, 0.04 0.73 C0.13 0.61, 0.39 0.29, 0.44 0.13 C0.49 -0.03, 0.34 -0.22, 0.34 -0.23 C0.35 -0.23, 0.5 0.09, 0.47 0.1 M0.5 0.32 C0.66 0.22, 0.98 -0.42, 1.04 -0.34 C1.1 -0.25, 0.84 0.74, 0.86 0.85 C0.88 0.96, 1.16 0.34, 1.18 0.33 C1.2 0.32, 1.06 0.58, 0.97 0.77 C0.89 0.95, 0.86 1.47, 0.65 1.43 C0.43 1.39, -0.26 0.68, -0.32 0.54 C-0.39 0.41, 0.21 0.76, 0.24 0.62 C0.28 0.49, -0.1 -0.12, -0.12 -0.27 C-0.14 -0.43, 0.1 -0.4, 0.13 -0.29 C0.16 -0.18, -0.06 0.35, 0.04 0.38" stroke="#000000" stroke-width="1" fill="none"></path></g><g stroke-linecap="round" transform="translate(49.28049398709845 809.7835508991346) rotate(0 0.3812997188001077 0.6482095219601831)"><path d="M0.47 -0.23 C0.61 -0.21, 0.76 0.35, 0.83 0.45 C0.91 0.55, 0.96 0.35, 0.93 0.39 C0.89 0.43, 0.67 0.53, 0.62 0.7 C0.57 0.87, 0.73 1.3, 0.64 1.41 C0.56 1.51, 0.21 1.35, 0.12 1.33 C0.03 1.32, 0.06 1.43, 0.1 1.3 C0.13 1.17, 0.32 0.8, 0.32 0.57 C0.32 0.35, 0.06 0.03, 0.09 -0.05 C0.11 -0.13, 0.44 0.11, 0.45 0.09 C0.47 0.07, 0.22 -0.16, 0.18 -0.17 M0.83 -0.43 C0.91 -0.41, 0.68 0.54, 0.75 0.64 C0.81 0.74, 1.15 0.14, 1.22 0.17 C1.29 0.2, 1.21 0.55, 1.15 0.81 C1.09 1.06, 1.09 1.68, 0.88 1.72 C0.66 1.76, -0.05 1.12, -0.15 1.02 C-0.24 0.93, 0.3 1.29, 0.29 1.14 C0.27 0.98, -0.17 0.32, -0.23 0.11 C-0.29 -0.11, -0.13 -0.19, -0.07 -0.15 C-0.02 -0.11, -0.06 0.37, 0.08 0.37 C0.22 0.37, 0.73 -0.12, 0.76 -0.16" stroke="#000000" stroke-width="1" fill="none"></path></g><g mask="url(#mask-WRS20zdswj9t9FgL9BejY)" stroke-linecap="round"><g transform="translate(69.96971756107587 824.5575184170164) rotate(0 257.4011646069486 3.3755135163429486)"><path d="M-0.3 0.11 C85.76 1.25, 429.37 6.21, 515.36 7.4 M1.74 -0.88 C87.78 -0.13, 429.11 4.61, 514.7 5.62" stroke="#1e1e1e" stroke-width="1" fill="none"></path></g><g transform="translate(69.96971756107587 824.5575184170164) rotate(0 257.4011646069486 3.3755135163429486)"><path d="M491.1 13.87 C496.37 13.07, 502.41 11.74, 514.7 5.62 M491.1 13.87 C499.17 11.49, 507.56 7.46, 514.7 5.62" stroke="#1e1e1e" stroke-width="1" fill="none"></path></g><g transform="translate(69.96971756107587 824.5575184170164) rotate(0 257.4011646069486 3.3755135163429486)"><path d="M491.32 -3.23 C496.62 -0.32, 502.61 2.07, 514.7 5.62 M491.32 -3.23 C499.22 0.28, 507.53 2.15, 514.7 5.62" stroke="#1e1e1e" stroke-width="1" fill="none"></path></g></g><mask id="mask-WRS20zdswj9t9FgL9BejY"><rect x="0" y="0" fill="#fff" width="684.7720467749731" height="931.3085454497023"></rect><rect x="285.3708821680244" y="792.9330319333593" fill="#000" width="84" height="70" opacity="1"></rect></mask><g transform="translate(285.3708821680243 792.9330319333593) rotate(0 42.12706551700836 34.88463711605874)"><text x="42" y="0" font-family="Virgil, Segoe UI Emoji" font-size="28px" fill="#1e1e1e" text-anchor="middle" style="white-space: pre;" direction="ltr" dominant-baseline="text-before-edge">Admin</text><text x="42" y="35" font-family="Virgil, Segoe UI Emoji" font-size="28px" fill="#1e1e1e" text-anchor="middle" style="white-space: pre;" direction="ltr" dominant-baseline="text-before-edge">管理员</text></g><g stroke-linecap="round" transform="translate(264.6641401303335 17.31235311582236) rotate(0 27.814609871408038 25.60069298867586)"><path d="M33.99 1.35 C39.63 2.02, 45.32 4.32, 48.78 8.62 C52.24 12.92, 54.71 21.47, 54.75 27.13 C54.79 32.79, 52.85 38.5, 49.02 42.59 C45.18 46.67, 37.58 50.72, 31.75 51.66 C25.92 52.6, 19.06 51.21, 14.02 48.23 C8.99 45.26, 3.56 39.28, 1.54 33.81 C-0.48 28.34, -0.07 20.51, 1.92 15.42 C3.92 10.33, 7.66 5.4, 13.49 3.25 C19.32 1.1, 32.15 2.41, 36.89 2.52 C41.63 2.63, 42.12 3.71, 41.93 3.9 M40.1 2.35 C45.43 4.43, 49.24 9.43, 51.73 14.48 C54.21 19.53, 56.11 27.32, 55.01 32.66 C53.9 38, 50.18 43.56, 45.1 46.5 C40.03 49.44, 30.76 50.5, 24.55 50.3 C18.33 50.11, 11.86 49.07, 7.8 45.33 C3.74 41.6, 0.82 33.65, 0.2 27.87 C-0.43 22.1, 0.61 15.22, 4.06 10.68 C7.51 6.14, 15.18 1.91, 20.89 0.63 C26.6 -0.65, 35.36 2.52, 38.33 3.02 C41.29 3.51, 38.66 3.15, 38.69 3.6" stroke="#000000" stroke-width="2" fill="none"></path></g><g stroke-linecap="round"><g transform="translate(289.31398882683277 68.22996234418451) rotate(0 -1.3648146430019779 31.036510087807642)"><path d="M0.47 -1.05 C-0.11 9.38, -3.35 52.57, -3.71 62.94 M-0.74 1.01 C-0.94 11.09, -1.31 51.1, -1.51 61.28" stroke="#000000" stroke-width="2" fill="none"></path></g></g><mask></mask><g stroke-linecap="round"><g transform="translate(286.8278292128256 131.89272848530118) rotate(0 12.285936395114845 18.927687043311323)"><path d="M-0.98 0.87 C3.2 7.21, 21.53 30.98, 25.59 36.97 M0.7 0.28 C4.78 6.84, 21.02 31.82, 25.18 38.04" stroke="#000000" stroke-width="2" fill="none"></path></g></g><mask></mask><g stroke-linecap="round"><g transform="translate(283.33160029249336 129.4419134765874) rotate(0 -10.51219828083174 17.583709265088032)"><path d="M1.02 -0.89 C-2.51 4.66, -18.71 28.05, -22.19 34.12 M0.1 1.26 C-3 6.84, -16.73 29.76, -20.09 35.11" stroke="#000000" stroke-width="2" fill="none"></path></g></g><mask></mask><g stroke-linecap="round"><g transform="translate(255.37978107421657 103.50246744732544) rotate(0 16.24355997414864 -10.403916097574552)"><path d="M-1.16 -1.04 C4.27 -4.3, 28.01 -17.09, 33.63 -20.44 M0.42 1.02 C5.71 -2.53, 28.04 -18.87, 33.28 -22.37" stroke="#000000" stroke-width="2" fill="none"></path></g></g><mask></mask><g stroke-linecap="round"><g transform="translate(287.0954541686791 81.50145143271902) rotate(0 11.620233834584951 13.84607582235924)"><path d="M1.14 0.37 C5.23 5.1, 19.51 22.68, 23.35 27.36 M0.29 -0.49 C4.33 4.52, 18.53 24.22, 22.46 28.73" stroke="#000000" stroke-width="2" fill="none"></path></g></g><mask></mask><g transform="translate(265.9795978471069 23.883144649620135) rotate(0 24.262954711914062 11)"><text x="0" y="0" font-family="Virgil, Segoe UI Emoji" font-size="15.282036963929505px" fill="#000000" text-anchor="start" style="white-space: pre;" direction="ltr" dominant-baseline="text-before-edge">｡◕‿◕｡</text></g><g mask="url(#mask-_KF_pC1_uS1lG1E2VsMo3)" stroke-linecap="round"><g transform="translate(315.9754440279668 71.53872569997338) rotate(0 484.1329440195275 6.054772357143975)"><path d="M0.79 0.91 C162.23 2.77, 807.1 10.42, 968.35 12.11 M-0.26 0.34 C161.07 2.33, 806.15 11.73, 967.45 13.64" stroke="#1e1e1e" stroke-width="1" fill="none"></path></g><g transform="translate(315.9754440279668 71.53872569997338) rotate(0 484.1329440195275 6.054772357143975)"><path d="M943.84 21.88 C951.73 19.62, 956.64 17.28, 967.45 13.64 M943.84 21.88 C948.36 21.05, 954.71 18.56, 967.45 13.64" stroke="#1e1e1e" stroke-width="1" fill="none"></path></g><g transform="translate(315.9754440279668 71.53872569997338) rotate(0 484.1329440195275 6.054772357143975)"><path d="M944.07 4.78 C952.02 7.18, 956.88 9.51, 967.45 13.64 M944.07 4.78 C948.37 7.57, 954.67 8.69, 967.45 13.64" stroke="#1e1e1e" stroke-width="1" fill="none"></path></g></g><mask id="mask-_KF_pC1_uS1lG1E2VsMo3"><rect x="0" y="0" fill="#fff" width="1384.2413320670216" height="183.64827041426133"></rect><rect x="757.3664141705412" y="42.59349805711736" fill="#000" width="85.48394775390625" height="70" opacity="1"></rect></mask><g transform="translate(757.366414170541 42.59349805711736) rotate(0 42.65476102771697 35.93653644080268)"><text x="42.741973876953125" y="0" font-family="Virgil, Segoe UI Emoji" font-size="28px" fill="#1e1e1e" text-anchor="middle" style="white-space: pre;" direction="ltr" dominant-baseline="text-before-edge">visitor</text><text x="42.741973876953125" y="35" font-family="Virgil, Segoe UI Emoji" font-size="28px" fill="#1e1e1e" text-anchor="middle" style="white-space: pre;" direction="ltr" dominant-baseline="text-before-edge">访问者</text></g></svg>